#!OML:ASF I:\Actors\actors\Patient Classification 1\Patient 1\Session 1\Subject1.ASF
:FULLY-SPECIFIED
:DEGREES
766
root -0.409706 17.5334 7.79544 6.26762 -1.83828 -5.91538
lowerback 1.52796 2.03689 3.44169
upperback -6.31912 2.96337 0.612605
thorax -7.31643 1.28158 -1.51097
lowerneck -4.42936 -5.53401 -5.77481
upperneck 7.18964 -7.90351 10.7666
head 3.52398 -3.66277 3.83624
rclavicle -2.41026e-014 1.59028e-014
rhumerus -39.7986 -19.4377 -79.7192
rradius 27.9708
rwrist 35.136
rhand -13.4387 -28.697
rfingers 7.12502
rthumb 12.6703 -58.2926
lclavicle -2.41026e-014 1.59028e-014
lhumerus -38.368 21.907 75.894
lradius 26.2092
lwrist -22.0859
lhand -14.5908 -13.6448
lfingers 7.12502
lthumb 11.5594 16.0164
rfemur 0.70836 22.9133 24.4343
rtibia 1.01158
rfoot -11.0828 -22.5651
rtoes 2.87409
lfemur 9.52157 -39.1833 -19.0022
ltibia -3.78304
lfoot -12.7889 42.8722
ltoes -4.23528
767
root -0.412567 17.533 7.79454 6.19396 -1.88039 -5.96633
lowerback 1.54753 2.04688 3.47427
upperback -6.25762 2.97745 0.612785
thorax -7.25941 1.28835 -1.52934
lowerneck -4.47213 -5.63037 -5.73213
upperneck 7.11093 -8.02545 10.7249
head 3.51473 -3.72394 3.80842
rclavicle 4.02539e-015 7.95139e-016
rhumerus -39.6846 -19.383 -79.7176
rradius 27.9802
rwrist 34.9108
rhand -13.4262 -28.8321
rfingers 7.12502
rthumb 12.6824 -58.427
lclavicle 4.02539e-015 7.95139e-016
lhumerus -38.3564 22.2851 75.3808
lradius 25.7237
lwrist -22.7715
lhand -14.6716 -14.2048
lfingers 7.12502
lthumb 11.4814 15.4608
rfemur 0.7697 22.8678 24.524
rtibia 1.03885
rfoot -11.0356 -22.4908
rtoes 2.72899
lfemur 9.6189 -39.073 -18.97
ltibia -3.82181
lfoot -12.8751 42.8128
ltoes -3.94753
768
root -0.415994 17.5331 7.79339 6.18273 -1.90745 -5.94076
lowerback 1.54824 2.06444 3.44042
upperback -6.24833 2.99644 0.573402
thorax -7.24816 1.29873 -1.55284
lowerneck -4.44028 -5.71621 -5.78699
upperneck 7.03315 -8.14326 10.8451
head 3.50349 -3.78171 3.8483
rclavicle 8.99501e-015 -5.96354e-015
rhumerus -39.6425 -19.5542 -79.588
rradius 27.9113
rwrist 34.9428
rhand -13.4328 -28.9927
rfingers 7.12502
rthumb 12.676 -58.588
lclavicle 8.99501e-015 -5.96354e-015
lhumerus -38.3907 22.5173 74.9545
lradius 25.2246
lwrist -22.8646
lhand -15.4277 -14.7689
lfingers 7.12502
lthumb 10.7523 14.936
rfemur 0.745641 22.8559 24.4949
rtibia 1.07427
rfoot -11.0335 -22.4454
rtoes 2.59573
lfemur 9.62981 -39.0742 -18.9967
ltibia -3.81992
lfoot -13.02 42.8398
ltoes -3.51382
769
root -0.418771 17.5337 7.79133 6.19649 -1.91856 -5.88364
lowerback 1.54717 2.07016 3.37975
upperback -6.26069 2.99873 0.534204
thorax -7.26122 1.30173 -1.56045
lowerneck -4.38989 -5.77558 -5.86468
upperneck 6.9382 -8.2257 11.0011
head 3.48361 -3.82226 3.9057
rclavicle 7.05686e-015 -2.0276e-014
rhumerus -39.6409 -19.7683 -79.3655
rradius 27.8075
rwrist 35.088
rhand -13.4716 -29.0988
rfingers 7.12502
rthumb 12.6386 -58.6965
lclavicle 7.05686e-015 -2.0276e-014
lhumerus -38.4505 22.6144 74.6649
lradius 25.1793
lwrist -23.4912
lhand -15.2382 -12.7224
lfingers 7.12502
lthumb 10.935 16.9728
rfemur 0.699621 22.8582 24.4193
rtibia 1.10683
rfoot -11.0798 -22.4212
rtoes 2.87639
lfemur 9.58839 -39.0933 -19.0403
ltibia -3.78203
lfoot -13.0428 42.8455
ltoes -3.54505
770
root -0.421416 17.534 7.78811 6.21935 -1.94458 -5.85741
lowerback 1.53905 2.06076 3.31887
upperback -6.27765 2.98269 0.530304
thorax -7.27799 1.29676 -1.52956
lowerneck -4.31401 -5.80918 -5.92134
upperneck 6.82252 -8.2688 11.1039
head 3.44685 -3.84625 3.94676
rclavicle -6.90777e-015 1.11319e-014
rhumerus -39.6317 -19.9889 -79.0793
rradius 27.6297
rwrist 35.4239
rhand -13.5658 -28.9743
rfingers 7.12502
rthumb 12.5478 -58.5775
lclavicle -6.90777e-015 1.11319e-014
lhumerus -38.6174 23.0285 74.1029
lradius 24.9452
lwrist -24.1682
lhand -15.0712 -11.9466
lfingers 7.12502
lthumb 11.0961 17.74
rfemur 0.632244 22.8494 24.3716
rtibia 1.16468
rfoot -11.1739 -22.363
rtoes 3.14947
lfemur 9.51515 -39.0387 -19.014
ltibia -3.75969
lfoot -12.9439 42.8101
ltoes -3.93213
